<svg width="48" height="48" viewBox="0 0 48 48" fill="none" xmlns="http://www.w3.org/2000/svg">
  <!-- Left Chip Block - White outline with black inner stroke -->
  <rect x="2" y="8" width="18" height="32" rx="4" stroke="white" stroke-width="3" fill="transparent"/>
  <rect x="2" y="8" width="18" height="32" rx="4" stroke="black" stroke-width="1.5" fill="transparent"/>
  
  <!-- Right Chip Block - White outline with black inner stroke -->
  <rect x="28" y="8" width="18" height="32" rx="4" stroke="white" stroke-width="3" fill="transparent"/>
  <rect x="28" y="8" width="18" height="32" rx="4" stroke="black" stroke-width="1.5" fill="transparent"/>

  <!-- Left Chip - Alternating Black and White Lines -->
  <line x1="5" y1="14" x2="17" y2="14" stroke="white" stroke-width="3"/>
  <line x1="5" y1="14" x2="17" y2="14" stroke="black" stroke-width="6.5"/>
  <line x1="5" y1="20" x2="17" y2="20" stroke="black" stroke-width="7"/>
  <line x1="5" y1="19" x2="17" y2="19" stroke="white" stroke-width="5"/>
  <line x1="5" y1="26" x2="17" y2="26" stroke="white" stroke-width="3"/>
  <line x1="5" y1="26" x2="17" y2="26" stroke="black" stroke-width="6"/>
  <line x1="5" y1="36" x2="17" y2="36" stroke="black" stroke-width="5"/>
  <line x1="5" y1="32" x2="17" y2="32" stroke="white" stroke-width="3"/>

  <!-- Right Chip - Same as Left Chip -->
  <line x1="31" y1="14" x2="43" y2="14" stroke="white" stroke-width="3"/>
  <line x1="31" y1="14" x2="43" y2="14" stroke="black" stroke-width="6.5"/>
  <line x1="31" y1="20" x2="43" y2="20" stroke="black" stroke-width="7"/>
  <line x1="31" y1="19" x2="43" y2="19" stroke="white" stroke-width="5"/>
  <line x1="31" y1="26" x2="43" y2="26" stroke="white" stroke-width="3"/>
  <line x1="31" y1="26" x2="43" y2="26" stroke="black" stroke-width="6"/>
  <line x1="31" y1="36" x2="43" y2="36" stroke="black" stroke-width="5"/>
  <line x1="31" y1="32" x2="43" y2="32" stroke="white" stroke-width="3"/>

  <!-- Central Arrow - Dual color for visibility -->
  <path d="M24 8 L24 40 M24 12 L20 16 M24 12 L28 16 M24 36 L20 32 M24 36 L28 32"
        stroke="white" stroke-width="4" stroke-linecap="round"/>
  <path d="M24 8 L24 40 M24 12 L20 16 M24 12 L28 16 M24 36 L20 32 M24 36 L28 32"
        stroke="black" stroke-width="2" stroke-linecap="round"/>
</svg>
